<svg width="22" height="18" viewBox="0 0 22 18" fill="none" xmlns="http://www.w3.org/2000/svg">
<path fill-rule="evenodd" clip-rule="evenodd" d="M7.55184 0.581856C7.98684 -0.288147 9.1704 -0.122942 9.47261 0.682952L9.47802 0.697381L14.1111 14.3144L16.846 8.00029H21C21.5523 8.00029 22 8.44801 22 9.00029C22 9.55258 21.5523 10.0003 21 10.0003H18.1592L14.9588 17.3891L14.9465 17.4137C14.7462 17.8142 14.3518 17.9965 14.0027 17.9965C13.6506 17.9965 13.2021 17.8011 13.0208 17.3176L13.0153 17.3031L8.3274 3.52473L5.12166 10.0053H1C0.447715 10.0053 0 9.55758 0 9.0053C0 8.45301 0.447715 8.0053 1 8.0053H3.87968L7.55184 0.581856Z" fill="currentColor"/>
</svg>
